<mxfile>
    <diagram id="IY848mJUZ7QDE_5gdJfN" name="Strings">
        <mxGraphModel dx="884" dy="478" grid="0" gridSize="10" guides="1" tooltips="1" connect="1" arrows="1" fold="1" page="1" pageScale="1" pageWidth="827" pageHeight="1169" math="0" shadow="0">
            <root>
                <mxCell id="0"/>
                <mxCell id="1" parent="0"/>
                <mxCell id="Or-OydPIX9BQbv0zRn0f-1" value="&lt;i&gt;&lt;font style=&quot;font-size: 15px&quot;&gt;myStr.replace('&lt;u&gt;Hello&lt;/u&gt;', '&lt;u&gt;Bye&lt;/u&gt;')&lt;/font&gt;&lt;/i&gt;" style="rounded=1;whiteSpace=wrap;html=1;fillColor=#fa6800;strokeColor=#C73500;fontStyle=1;fontSize=15;fontColor=#ffffff;" parent="1" vertex="1">
                    <mxGeometry x="260" y="200" width="210" height="60" as="geometry"/>
                </mxCell>
                <mxCell id="Or-OydPIX9BQbv0zRn0f-2" value="" style="endArrow=classic;html=1;fontSize=15;exitX=0.567;exitY=0.983;exitDx=0;exitDy=0;exitPerimeter=0;" parent="1" source="Or-OydPIX9BQbv0zRn0f-1" edge="1">
                    <mxGeometry width="50" height="50" relative="1" as="geometry">
                        <mxPoint x="356" y="260" as="sourcePoint"/>
                        <mxPoint x="340" y="310" as="targetPoint"/>
                    </mxGeometry>
                </mxCell>
                <mxCell id="Or-OydPIX9BQbv0zRn0f-3" value="" style="endArrow=classic;html=1;fontSize=15;exitX=0.957;exitY=0.983;exitDx=0;exitDy=0;exitPerimeter=0;" parent="1" source="Or-OydPIX9BQbv0zRn0f-1" edge="1">
                    <mxGeometry width="50" height="50" relative="1" as="geometry">
                        <mxPoint x="499.06999999999994" y="280" as="sourcePoint"/>
                        <mxPoint x="500" y="310" as="targetPoint"/>
                        <Array as="points"/>
                    </mxGeometry>
                </mxCell>
                <mxCell id="Or-OydPIX9BQbv0zRn0f-4" value="Palabra que queremos que reemplace" style="ellipse;whiteSpace=wrap;html=1;fontSize=15;fillColor=#f0a30a;strokeColor=#BD7000;fontColor=#ffffff;" parent="1" vertex="1">
                    <mxGeometry x="230" y="320" width="120" height="80" as="geometry"/>
                </mxCell>
                <mxCell id="Or-OydPIX9BQbv0zRn0f-5" value="Palabra por la que reemplazamos" style="ellipse;whiteSpace=wrap;html=1;fontSize=15;fillColor=#f0a30a;strokeColor=#BD7000;fontColor=#ffffff;" parent="1" vertex="1">
                    <mxGeometry x="470" y="320" width="120" height="80" as="geometry"/>
                </mxCell>
                <mxCell id="Or-OydPIX9BQbv0zRn0f-67" value="&lt;i&gt;&lt;font style=&quot;font-size: 15px&quot;&gt;myStr.startswith('&lt;u&gt;Hola'&lt;/u&gt;)&lt;/font&gt;&lt;/i&gt;" style="rounded=1;whiteSpace=wrap;html=1;fillColor=#76608a;strokeColor=#432D57;fontStyle=1;fontSize=15;fontColor=#ffffff;" parent="1" vertex="1">
                    <mxGeometry x="213" y="496" width="274" height="60" as="geometry"/>
                </mxCell>
                <mxCell id="Or-OydPIX9BQbv0zRn0f-68" value="" style="endArrow=classic;html=1;fontSize=15;exitX=1;exitY=1;exitDx=0;exitDy=0;entryX=0;entryY=0.5;entryDx=0;entryDy=0;" parent="1" source="Or-OydPIX9BQbv0zRn0f-67" target="Or-OydPIX9BQbv0zRn0f-70" edge="1">
                    <mxGeometry width="50" height="50" relative="1" as="geometry">
                        <mxPoint x="309" y="556" as="sourcePoint"/>
                        <mxPoint x="540" y="556" as="targetPoint"/>
                    </mxGeometry>
                </mxCell>
                <mxCell id="Or-OydPIX9BQbv0zRn0f-69" value="" style="endArrow=classic;html=1;fontSize=15;exitX=1;exitY=0;exitDx=0;exitDy=0;entryX=0;entryY=0.5;entryDx=0;entryDy=0;" parent="1" source="Or-OydPIX9BQbv0zRn0f-67" target="Or-OydPIX9BQbv0zRn0f-71" edge="1">
                    <mxGeometry width="50" height="50" relative="1" as="geometry">
                        <mxPoint x="452.06999999999994" y="576" as="sourcePoint"/>
                        <mxPoint x="539" y="496" as="targetPoint"/>
                        <Array as="points"/>
                    </mxGeometry>
                </mxCell>
                <mxCell id="Or-OydPIX9BQbv0zRn0f-70" value="FALSE: si no comienza con dicha palabra" style="ellipse;whiteSpace=wrap;html=1;fontSize=15;fillColor=#f0a30a;strokeColor=#BD7000;fontColor=#ffffff;" parent="1" vertex="1">
                    <mxGeometry x="544" y="547" width="120" height="80" as="geometry"/>
                </mxCell>
                <mxCell id="Or-OydPIX9BQbv0zRn0f-71" value="TRUE: en el caso que comience con dicha palabra" style="ellipse;whiteSpace=wrap;html=1;fontSize=15;fillColor=#f0a30a;strokeColor=#BD7000;fontColor=#ffffff;" parent="1" vertex="1">
                    <mxGeometry x="523" y="441" width="139" height="97" as="geometry"/>
                </mxCell>
                <mxCell id="Or-OydPIX9BQbv0zRn0f-73" value="&lt;i&gt;&lt;font style=&quot;font-size: 15px&quot;&gt;myStr.split()&lt;/font&gt;&lt;/i&gt;" style="rounded=1;whiteSpace=wrap;html=1;fillColor=#76608a;strokeColor=#432D57;fontStyle=1;fontSize=15;fontColor=#ffffff;" parent="1" vertex="1">
                    <mxGeometry x="211" y="709" width="274" height="60" as="geometry"/>
                </mxCell>
                <mxCell id="Or-OydPIX9BQbv0zRn0f-75" value="" style="endArrow=classic;html=1;fontSize=15;exitX=1;exitY=0.5;exitDx=0;exitDy=0;entryX=0;entryY=0.5;entryDx=0;entryDy=0;" parent="1" source="Or-OydPIX9BQbv0zRn0f-73" target="Or-OydPIX9BQbv0zRn0f-77" edge="1">
                    <mxGeometry width="50" height="50" relative="1" as="geometry">
                        <mxPoint x="450.06999999999994" y="789" as="sourcePoint"/>
                        <mxPoint x="537" y="709" as="targetPoint"/>
                        <Array as="points"/>
                    </mxGeometry>
                </mxCell>
                <mxCell id="Or-OydPIX9BQbv0zRn0f-77" value="TRUE: en el caso que comience con dicha palabra" style="ellipse;whiteSpace=wrap;html=1;fontSize=15;fillColor=#f0a30a;strokeColor=#BD7000;fontColor=#ffffff;" parent="1" vertex="1">
                    <mxGeometry x="527" y="662" width="139" height="97" as="geometry"/>
                </mxCell>
                <mxCell id="5eHRKPPBl8xN0nKChqtK-1" value="&lt;i&gt;&lt;font style=&quot;font-size: 15px&quot;&gt;myStr.split('o')&lt;/font&gt;&lt;/i&gt;" style="rounded=1;whiteSpace=wrap;html=1;fillColor=#76608a;strokeColor=#432D57;fontStyle=1;fontSize=15;fontColor=#ffffff;" parent="1" vertex="1">
                    <mxGeometry x="211" y="883" width="274" height="60" as="geometry"/>
                </mxCell>
                <mxCell id="5eHRKPPBl8xN0nKChqtK-2" value="" style="endArrow=classic;html=1;fontSize=15;exitX=1;exitY=0.5;exitDx=0;exitDy=0;entryX=0;entryY=0.5;entryDx=0;entryDy=0;" parent="1" source="5eHRKPPBl8xN0nKChqtK-1" target="5eHRKPPBl8xN0nKChqtK-3" edge="1">
                    <mxGeometry width="50" height="50" relative="1" as="geometry">
                        <mxPoint x="450.06999999999994" y="963" as="sourcePoint"/>
                        <mxPoint x="537" y="883" as="targetPoint"/>
                        <Array as="points"/>
                    </mxGeometry>
                </mxCell>
                <mxCell id="5eHRKPPBl8xN0nKChqtK-3" value="Separa el String en la letra 'o'" style="ellipse;whiteSpace=wrap;html=1;fontSize=15;fillColor=#f0a30a;strokeColor=#BD7000;fontColor=#ffffff;" parent="1" vertex="1">
                    <mxGeometry x="530" y="864.5" width="139" height="97" as="geometry"/>
                </mxCell>
                <mxCell id="5eHRKPPBl8xN0nKChqtK-4" value="" style="endArrow=classic;html=1;fontSize=15;exitX=1;exitY=1;exitDx=0;exitDy=0;entryX=0;entryY=0.5;entryDx=0;entryDy=0;" parent="1" source="5eHRKPPBl8xN0nKChqtK-1" target="5eHRKPPBl8xN0nKChqtK-5" edge="1">
                    <mxGeometry width="50" height="50" relative="1" as="geometry">
                        <mxPoint x="497" y="989" as="sourcePoint"/>
                        <mxPoint x="528" y="989" as="targetPoint"/>
                        <Array as="points"/>
                    </mxGeometry>
                </mxCell>
                <mxCell id="5eHRKPPBl8xN0nKChqtK-5" value="Se puede pasar cualquier letra o carÃ¡cter o espacio" style="ellipse;whiteSpace=wrap;html=1;fontSize=15;fillColor=#f0a30a;strokeColor=#BD7000;fontColor=#ffffff;" parent="1" vertex="1">
                    <mxGeometry x="534.5" y="968" width="139" height="97" as="geometry"/>
                </mxCell>
                <mxCell id="5eHRKPPBl8xN0nKChqtK-6" value="&lt;i&gt;&lt;font style=&quot;font-size: 15px&quot;&gt;myStr.find('o')&lt;/font&gt;&lt;/i&gt;" style="rounded=1;whiteSpace=wrap;html=1;fillColor=#76608a;strokeColor=#432D57;fontStyle=1;fontSize=15;fontColor=#ffffff;" parent="1" vertex="1">
                    <mxGeometry x="213" y="1200.5" width="274" height="60" as="geometry"/>
                </mxCell>
                <mxCell id="5eHRKPPBl8xN0nKChqtK-7" value="" style="endArrow=classic;html=1;fontSize=15;exitX=1;exitY=0.5;exitDx=0;exitDy=0;entryX=0;entryY=0.5;entryDx=0;entryDy=0;" parent="1" source="5eHRKPPBl8xN0nKChqtK-6" target="5eHRKPPBl8xN0nKChqtK-8" edge="1">
                    <mxGeometry width="50" height="50" relative="1" as="geometry">
                        <mxPoint x="452.06999999999994" y="1280.5" as="sourcePoint"/>
                        <mxPoint x="539" y="1200.5" as="targetPoint"/>
                        <Array as="points"/>
                    </mxGeometry>
                </mxCell>
                <mxCell id="5eHRKPPBl8xN0nKChqtK-8" value="Devuelve la posicion de la primera letra 'o'" style="ellipse;whiteSpace=wrap;html=1;fontSize=15;fillColor=#f0a30a;strokeColor=#BD7000;fontColor=#ffffff;" parent="1" vertex="1">
                    <mxGeometry x="532" y="1182" width="139" height="97" as="geometry"/>
                </mxCell>
                <mxCell id="5eHRKPPBl8xN0nKChqtK-9" value="" style="endArrow=classic;html=1;fontSize=15;exitX=1;exitY=1;exitDx=0;exitDy=0;entryX=0;entryY=0.5;entryDx=0;entryDy=0;" parent="1" source="5eHRKPPBl8xN0nKChqtK-6" target="5eHRKPPBl8xN0nKChqtK-10" edge="1">
                    <mxGeometry width="50" height="50" relative="1" as="geometry">
                        <mxPoint x="499" y="1306.5" as="sourcePoint"/>
                        <mxPoint x="530" y="1306.5" as="targetPoint"/>
                        <Array as="points"/>
                    </mxGeometry>
                </mxCell>
                <mxCell id="5eHRKPPBl8xN0nKChqtK-10" value="Los Ã­ndices comienza en 0 hasta n" style="ellipse;whiteSpace=wrap;html=1;fontSize=15;fillColor=#f0a30a;strokeColor=#BD7000;fontColor=#ffffff;" parent="1" vertex="1">
                    <mxGeometry x="536.5" y="1285.5" width="139" height="97" as="geometry"/>
                </mxCell>
            </root>
        </mxGraphModel>
    </diagram>
    <diagram id="4REne5sGGdECSRK6R7-o" name="Numbers">
        <mxGraphModel dx="884" dy="1647" grid="0" gridSize="10" guides="1" tooltips="1" connect="1" arrows="1" fold="1" page="1" pageScale="1" pageWidth="827" pageHeight="1169" math="0" shadow="0">
            <root>
                <mxCell id="7ng_lSSS93p3u8luCfGN-0"/>
                <mxCell id="7ng_lSSS93p3u8luCfGN-1" parent="7ng_lSSS93p3u8luCfGN-0"/>
                <mxCell id="cb2NxyykmShcXcQo_hbl-12" value="" style="ellipse;whiteSpace=wrap;html=1;fontSize=20;labelBackgroundColor=none;fillColor=#e51400;strokeColor=#B20000;fontColor=#ffffff;" parent="7ng_lSSS93p3u8luCfGN-1" vertex="1">
                    <mxGeometry x="303" y="-811" width="48" height="47" as="geometry"/>
                </mxCell>
                <mxCell id="4v0id9t0AyEtWwIp4ITC-0" value="NUMBERS" style="rounded=1;whiteSpace=wrap;html=1;fillColor=#FF6666;strokeColor=#000000;fontStyle=1;fontSize=15;fontColor=#ffffff;" parent="7ng_lSSS93p3u8luCfGN-1" vertex="1">
                    <mxGeometry x="169" y="-1062" width="118" height="60" as="geometry"/>
                </mxCell>
                <mxCell id="4v0id9t0AyEtWwIp4ITC-1" value="" style="endArrow=classic;html=1;fontSize=15;exitX=1;exitY=1;exitDx=0;exitDy=0;entryX=0;entryY=0.5;entryDx=0;entryDy=0;" parent="7ng_lSSS93p3u8luCfGN-1" source="4v0id9t0AyEtWwIp4ITC-0" target="4v0id9t0AyEtWwIp4ITC-5" edge="1">
                    <mxGeometry width="50" height="50" relative="1" as="geometry">
                        <mxPoint x="109" y="-1002" as="sourcePoint"/>
                        <mxPoint x="343.9999999999998" y="-971" as="targetPoint"/>
                    </mxGeometry>
                </mxCell>
                <mxCell id="4v0id9t0AyEtWwIp4ITC-2" value="" style="endArrow=classic;html=1;fontSize=15;exitX=1;exitY=0;exitDx=0;exitDy=0;entryX=0;entryY=0.5;entryDx=0;entryDy=0;" parent="7ng_lSSS93p3u8luCfGN-1" source="4v0id9t0AyEtWwIp4ITC-0" target="4v0id9t0AyEtWwIp4ITC-4" edge="1">
                    <mxGeometry width="50" height="50" relative="1" as="geometry">
                        <mxPoint x="252.06999999999994" y="-982" as="sourcePoint"/>
                        <mxPoint x="339" y="-1062" as="targetPoint"/>
                        <Array as="points"/>
                    </mxGeometry>
                </mxCell>
                <mxCell id="cb2NxyykmShcXcQo_hbl-2" style="edgeStyle=orthogonalEdgeStyle;rounded=0;orthogonalLoop=1;jettySize=auto;html=1;exitX=1;exitY=0.5;exitDx=0;exitDy=0;entryX=0;entryY=0.5;entryDx=0;entryDy=0;" parent="7ng_lSSS93p3u8luCfGN-1" source="4v0id9t0AyEtWwIp4ITC-4" target="cb2NxyykmShcXcQo_hbl-0" edge="1">
                    <mxGeometry relative="1" as="geometry"/>
                </mxCell>
                <mxCell id="4v0id9t0AyEtWwIp4ITC-4" value="INTEGER" style="ellipse;whiteSpace=wrap;html=1;fontSize=15;fillColor=#3399FF;strokeColor=#000000;fontColor=#ffffff;" parent="7ng_lSSS93p3u8luCfGN-1" vertex="1">
                    <mxGeometry x="347" y="-1122" width="139" height="97" as="geometry"/>
                </mxCell>
                <mxCell id="cb2NxyykmShcXcQo_hbl-5" style="edgeStyle=orthogonalEdgeStyle;rounded=0;orthogonalLoop=1;jettySize=auto;html=1;exitX=1;exitY=0.5;exitDx=0;exitDy=0;entryX=0;entryY=0.5;entryDx=0;entryDy=0;" parent="7ng_lSSS93p3u8luCfGN-1" source="4v0id9t0AyEtWwIp4ITC-5" target="cb2NxyykmShcXcQo_hbl-1" edge="1">
                    <mxGeometry relative="1" as="geometry"/>
                </mxCell>
                <mxCell id="4v0id9t0AyEtWwIp4ITC-5" value="FLOAT" style="ellipse;whiteSpace=wrap;html=1;fontSize=15;fillColor=#3399FF;strokeColor=#000000;fontColor=#ffffff;" parent="7ng_lSSS93p3u8luCfGN-1" vertex="1">
                    <mxGeometry x="347" y="-1015" width="139" height="97" as="geometry"/>
                </mxCell>
                <mxCell id="cb2NxyykmShcXcQo_hbl-0" value="10-20-30-1000-25000" style="ellipse;whiteSpace=wrap;html=1;fontSize=15;fillColor=#3399FF;strokeColor=#000000;fontColor=#ffffff;" parent="7ng_lSSS93p3u8luCfGN-1" vertex="1">
                    <mxGeometry x="516" y="-1122" width="139" height="97" as="geometry"/>
                </mxCell>
                <mxCell id="cb2NxyykmShcXcQo_hbl-1" value="10.5-25.32-3.146" style="ellipse;whiteSpace=wrap;html=1;fontSize=15;fillColor=#3399FF;strokeColor=#000000;fontColor=#ffffff;" parent="7ng_lSSS93p3u8luCfGN-1" vertex="1">
                    <mxGeometry x="516" y="-1015" width="139" height="97" as="geometry"/>
                </mxCell>
                <mxCell id="cb2NxyykmShcXcQo_hbl-6" value="" style="endArrow=none;html=1;" parent="7ng_lSSS93p3u8luCfGN-1" edge="1">
                    <mxGeometry width="50" height="50" relative="1" as="geometry">
                        <mxPoint x="287" y="-811" as="sourcePoint"/>
                        <mxPoint x="364" y="-811" as="targetPoint"/>
                    </mxGeometry>
                </mxCell>
                <mxCell id="cb2NxyykmShcXcQo_hbl-7" value="" style="endArrow=none;html=1;" parent="7ng_lSSS93p3u8luCfGN-1" edge="1">
                    <mxGeometry width="50" height="50" relative="1" as="geometry">
                        <mxPoint x="287" y="-861" as="sourcePoint"/>
                        <mxPoint x="287" y="-811" as="targetPoint"/>
                    </mxGeometry>
                </mxCell>
                <mxCell id="cb2NxyykmShcXcQo_hbl-8" value="&lt;font style=&quot;font-size: 20px;&quot;&gt;10&lt;/font&gt;" style="text;html=1;strokeColor=none;fillColor=none;align=center;verticalAlign=middle;whiteSpace=wrap;rounded=0;fontSize=20;" parent="7ng_lSSS93p3u8luCfGN-1" vertex="1">
                    <mxGeometry x="231" y="-843" width="40" height="20" as="geometry"/>
                </mxCell>
                <mxCell id="cb2NxyykmShcXcQo_hbl-9" value="&lt;font style=&quot;font-size: 20px;&quot;&gt;3&lt;/font&gt;" style="text;html=1;strokeColor=none;fillColor=none;align=center;verticalAlign=middle;whiteSpace=wrap;rounded=0;fontSize=20;" parent="7ng_lSSS93p3u8luCfGN-1" vertex="1">
                    <mxGeometry x="307" y="-843" width="40" height="20" as="geometry"/>
                </mxCell>
                <mxCell id="cb2NxyykmShcXcQo_hbl-10" value="&lt;font style=&quot;font-size: 20px;&quot;&gt;3&lt;/font&gt;" style="text;html=1;strokeColor=none;fillColor=none;align=center;verticalAlign=middle;whiteSpace=wrap;rounded=0;fontSize=20;" parent="7ng_lSSS93p3u8luCfGN-1" vertex="1">
                    <mxGeometry x="307" y="-796" width="40" height="20" as="geometry"/>
                </mxCell>
                <mxCell id="cb2NxyykmShcXcQo_hbl-11" value="&lt;font style=&quot;font-size: 20px&quot;&gt;1&lt;/font&gt;" style="text;html=1;strokeColor=none;fillColor=none;align=center;verticalAlign=middle;whiteSpace=wrap;rounded=0;fontSize=20;" parent="7ng_lSSS93p3u8luCfGN-1" vertex="1">
                    <mxGeometry x="231" y="-796" width="40" height="20" as="geometry"/>
                </mxCell>
                <mxCell id="cb2NxyykmShcXcQo_hbl-14" value="" style="endArrow=classic;html=1;fontSize=20;" parent="7ng_lSSS93p3u8luCfGN-1" edge="1">
                    <mxGeometry width="50" height="50" relative="1" as="geometry">
                        <mxPoint x="355" y="-786" as="sourcePoint"/>
                        <mxPoint x="386" y="-786" as="targetPoint"/>
                    </mxGeometry>
                </mxCell>
                <mxCell id="cb2NxyykmShcXcQo_hbl-16" value="El operador Mod (%) devuelve el resto de la divison" style="ellipse;whiteSpace=wrap;html=1;fontSize=15;fillColor=#3399FF;strokeColor=#000000;fontColor=#ffffff;" parent="7ng_lSSS93p3u8luCfGN-1" vertex="1">
                    <mxGeometry x="392" y="-836" width="139" height="97" as="geometry"/>
                </mxCell>
            </root>
        </mxGraphModel>
    </diagram>
</mxfile>